# xmcd CD database file
#
# Track frame offsets:
#	150
#	11346
#	22225
#	33357
#	48394
#	58875
#	69198
#	81232
#	95902
#	107253
#	120410
#	131880
#	143075
#	174980
#	211091
#	224647
#	236341
#	250318
#	274530
#	298087
#	322098
#	336469
#
# Disc length: 4655 seconds
#
# Revision: 0
# Processed by: cddbd v1.5.2PL0 Copyright (c) Steve Scherf et al.
# Submitted via: CDex 1.51
#
DISCID=4b122d16
DTITLE=Dinah Washington - Evil Gal - The Imperious Dinah Washington
DYEAR=2007
DGENRE=Jazz
TTITLE0=Fat Daddy
TTITLE1=Go Pretty Daddy
TTITLE2=TV Is The Thing
TTITLE3=Feel Like I Wanna Cry
TTITLE4=Lean Baby
TTITLE5=Never Never
TTITLE6=I Aint Goin To Cry No More
TTITLE7=I Am Blue
TTITLE8=My Man's An Undertaker
TTITLE9=Short John
TTITLE10=Our Love Is Here To Stay
TTITLE11=One Arabian Night
TTITLE12=I Let A Song Go Out Of My Heart
TTITLE13=A Foggy Day
TTITLE14=No No No (You Can't Love Two)
TTITLE15=What A Great Sensation
TTITLE16=If It's The Last Thing I Do
TTITLE17=I've Got You Under My Skin
TTITLE18=Darn That Dream
TTITLE19=Blue Gardenia
TTITLE20=I Diddle
TTITLE21=Wasn't It
EXTD=YEAR: 2007
EXTT0=
EXTT1=
EXTT2=
EXTT3=
EXTT4=
EXTT5=
EXTT6=
EXTT7=
EXTT8=
EXTT9=
EXTT10=
EXTT11=
EXTT12=
EXTT13=
EXTT14=
EXTT15=
EXTT16=
EXTT17=
EXTT18=
EXTT19=
EXTT20=
EXTT21=
PLAYORDER=
